<svg id="visual" viewBox="0 0 960 540" width="960" height="540" xmlns="http://www.w3.org/2000/svg" xmlns:xlink="http://www.w3.org/1999/xlink" version="1.1">
    <path d="M0 255L20 241.5C40 228 80 201 120 201C160 201 200 228 240 234.3C280 240.7 320 226.3 360 230.8C400 235.3 440 258.7 480 273.8C520 289 560 296 600 292.3C640 288.7 680 274.3 720 279.8C760 285.3 800 310.7 840 290C880 269.3 920 202.7 940 169.3L960 136L960 0L940 0C920 0 880 0 840 0C800 0 760 0 720 0C680 0 640 0 600 0C560 0 520 0 480 0C440 0 400 0 360 0C320 0 280 0 240 0C200 0 160 0 120 0C80 0 40 0 20 0L0 0Z" fill="#afb6f8" />
    <path d="M0 336L20 340.5C40 345 80 354 120 360.3C160 366.7 200 370.3 240 374.8C280 379.3 320 384.7 360 383.7C400 382.7 440 375.3 480 374.3C520 373.3 560 378.7 600 385.8C640 393 680 402 720 407.5C760 413 800 415 840 394.3C880 373.7 920 330.3 940 308.7L960 287L960 134L940 167.3C920 200.7 880 267.3 840 288C800 308.7 760 283.3 720 277.8C680 272.3 640 286.7 600 290.3C560 294 520 287 480 271.8C440 256.7 400 233.3 360 228.8C320 224.3 280 238.7 240 232.3C200 226 160 199 120 199C80 199 40 226 20 239.5L0 253Z" fill="#8e94f2" />
    <path d="M0 541L20 541C40 541 80 541 120 541C160 541 200 541 240 541C280 541 320 541 360 541C400 541 440 541 480 541C520 541 560 541 600 541C640 541 680 541 720 541C760 541 800 541 840 541C880 541 920 541 940 541L960 541L960 285L940 306.7C920 328.3 880 371.7 840 392.3C800 413 760 411 720 405.5C680 400 640 391 600 383.8C560 376.7 520 371.3 480 372.3C440 373.3 400 380.7 360 381.7C320 382.7 280 377.3 240 372.8C200 368.3 160 364.7 120 358.3C80 352 40 343 20 338.5L0 334Z" fill="#6a6ddc" />
</svg>